<?xml version="1.0" encoding="utf-8"?>
<!-- Generator: Adobe Illustrator 22.0.0, SVG Export Plug-In . SVG Version: 6.00 Build 0)  -->
<svg version="1.1" id="Layer_1" xmlns="http://www.w3.org/2000/svg" xmlns:xlink="http://www.w3.org/1999/xlink" x="0px" y="0px"
	 viewBox="0 0 1364.9 767.8" style="enable-background:new 0 0 1364.9 767.8;" xml:space="preserve">
<style type="text/css">
	.st0{fill:#2E2D2C;}
	.st1{fill:#555488;}
	.st2{fill:none;}
	.st3{fill:#542F61;}
	.st4{fill:#FFFFFF;}
	.st5{fill:none;stroke:#555488;stroke-width:2;stroke-miterlimit:10;stroke-dasharray:12;}
	.st6{fill:none;stroke:#555488;stroke-width:2;stroke-miterlimit:10;}
</style>
<rect x="-2" y="0" class="st0" width="1367.4" height="770.8"/>
<path class="st1" d="M116.9-3.5L31.1,147.5h59.6L176-3.5H116.9z"/>
<path class="st1" d="M1172.1,96.2L61,95.5l29.2,51.9l1110.8,0.3L1172.1,96.2z"/>
<path class="st1" d="M157.5,713.9l723,0.5l-20.3-36.1l-722.8-0.2L157.5,713.9z"/>
<rect x="-2" y="0" class="st2" width="1367.4" height="770.8"/>
<g transform="translate(105.241 63.351)">
	<path class="st1" d="M455.7,810.7h-562.9l218-368.5h562.9L455.7,810.7z"/>
	<path class="st3" d="M542.7,810.7H111.7L685.8-168h431.1L542.7,810.7z"/>
	<path class="st1" d="M1040.8,200.5H550L768-168h490.8L1040.8,200.5z"/>
</g>
<path class="st4" d="M226.3,391c1.6,1.7,3.9,2.7,6.2,2.7c1.8,0,3-1,3-2.2c0-1.5-1.5-2.3-3.7-3.1c-3.3-1.2-7.7-2.6-7.7-8
	c0-4.1,3.2-7.8,9-7.8c3-0.1,5.9,1,8.2,2.9l-2.9,4.6c-1.5-1.4-3.4-2.1-5.4-2.1c-1.7,0-2.6,0.9-2.6,2c0,1.4,1.5,2.1,3.7,2.9
	c3.3,1.2,7.7,2.8,7.7,8c0,4.9-3.4,8.2-9.2,8.2c-4.2,0-7.1-1.3-9.2-3.3L226.3,391z"/>
<path class="st4" d="M254.1,396.8c-1.2,1.5-3,2.3-4.9,2.3c-3.2,0-5.8-2.5-5.8-5.7c0-0.1,0-0.3,0-0.4c-0.2-3,2-5.7,5.1-5.9
	c0.2,0,0.5,0,0.7,0c1.9-0.1,3.7,0.7,4.9,2.1V387c0-1.7-1.2-2.9-3.3-2.9c-1.7,0.1-3.3,0.7-4.6,1.9l-2-3.7c2.1-1.8,4.8-2.7,7.6-2.7
	c4.2,0,7.7,1.8,7.7,6.8v12.2h-5.5L254.1,396.8z M254.1,392c-0.6-0.9-1.6-1.5-2.7-1.4c-1.3,0-2.4,1.1-2.4,2.4s1.1,2.4,2.4,2.4
	c1.1,0,2.1-0.5,2.7-1.5V392z"/>
<path class="st4" d="M273.1,396.8c-1.2,1.5-3,2.3-4.9,2.3c-3.2,0-5.8-2.5-5.8-5.7c0-0.1,0-0.3,0-0.4c-0.2-3,2-5.7,5.1-5.9
	c0.2,0,0.5,0,0.7,0c1.9-0.1,3.7,0.7,4.9,2.1V387c0-1.7-1.2-2.9-3.3-2.9c-1.7,0.1-3.3,0.8-4.6,1.9l-2-3.7c2.1-1.8,4.8-2.7,7.6-2.7
	c4.3,0,7.7,1.8,7.7,6.8v12.2H273L273.1,396.8z M273.1,392c-0.6-0.9-1.6-1.5-2.7-1.4c-1.3,0-2.4,1.1-2.4,2.4s1.1,2.4,2.4,2.4
	c1.1,0,2.1-0.5,2.7-1.5V392z"/>
<path class="st4" d="M283.1,392.6c1.5,1.3,3.3,2.1,5.3,2.2c1.5,0,2.3-0.6,2.3-1.5s-1.2-1.4-2.8-1.8c-2.7-0.7-6.4-1.7-6.4-6.1
	c0-3.1,2.5-5.9,7.2-5.9c2.5,0,4.9,0.8,6.8,2.4l-2.1,3.7c-1.3-1.2-2.9-1.8-4.7-1.8c-1.2,0-2,0.5-2,1.3s1,1.2,2.6,1.7
	c2.7,0.7,6.6,1.7,6.6,6.3c0,3.5-2.9,6-7.5,6c-2.8,0.1-5.5-0.8-7.6-2.7L283.1,392.6z"/>
<path class="st4" d="M229.8,366.7c-0.6,0.8-1.6,1.3-2.6,1.3c-2.1,0-3.7-1.6-3.7-4.4s1.6-4.4,3.7-4.4c1,0,2,0.5,2.6,1.3v-4.3h2.2
	v11.7h-2.2V366.7z M229.8,362.1c-0.5-0.6-1.2-1-1.9-1c-1.4,0.2-2.3,1.4-2.1,2.8c0.2,1.1,1,2,2.1,2.1c0.8,0,1.5-0.4,1.9-1V362.1z"/>
<path class="st4" d="M233.7,363.5c0-2.5,2-4.5,4.4-4.5c2.5,0,4.5,2,4.5,4.4c0,2.5-2,4.5-4.4,4.5c0,0,0,0,0,0
	c-2.4,0.1-4.3-1.7-4.5-4.1C233.7,363.8,233.7,363.7,233.7,363.5L233.7,363.5z M240.3,363.5c0.1-1.2-0.8-2.3-2-2.4
	c-0.1,0-0.1,0-0.2,0c-1.2,0-2.2,1-2.1,2.3c0,0.1,0,0.1,0,0.2c-0.2,1.2,0.7,2.3,1.8,2.5s2.3-0.7,2.5-1.8
	C240.4,363.9,240.4,363.7,240.3,363.5L240.3,363.5z"/>
<path class="st4" d="M248.2,359.1c1.3-0.1,2.6,0.5,3.3,1.5l-1.4,1.4c-0.4-0.6-1.1-0.9-1.8-0.9c-1.4,0.1-2.4,1.2-2.3,2.6
	c0.1,1.3,1.1,2.3,2.3,2.3c0.7,0,1.4-0.3,1.8-0.9l1.4,1.3c-0.8,1-2,1.6-3.3,1.5c-2.4,0.1-4.5-1.8-4.6-4.3s1.8-4.5,4.3-4.6
	C248,359.1,248.1,359.1,248.2,359.1L248.2,359.1z"/>
<path class="st4" d="M256.3,364.5l-1,1.1v2.2H253v-11.7h2.2v7l3.2-3.8h2.7l-3.3,3.8l3.4,4.6h-2.8L256.3,364.5z"/>
<path class="st4" d="M265.8,359.1c2.5,0,4.2,1.9,4.2,4.7v0.5h-6.3c0.2,1.2,1.2,2,2.4,2c0.8,0,1.6-0.3,2.3-0.8l1,1.4
	c-1,0.8-2.2,1.2-3.5,1.2c-2.4,0.1-4.5-1.8-4.7-4.2c-0.1-2.4,1.8-4.5,4.2-4.7C265.6,359.1,265.7,359.1,265.8,359.1L265.8,359.1z
	 M263.8,362.7h4.2c0-1.1-1-1.9-2.1-1.9c0,0,0,0,0,0C264.8,360.8,263.8,361.7,263.8,362.7L263.8,362.7z"/>
<path class="st4" d="M272.1,365.7v-4.4h-1.4v-1.9h1.4V357h2.2v2.3h1.7v1.9h-1.7v3.8c0,0.5,0.3,0.9,0.8,0.9c0.3,0,0.5-0.1,0.8-0.2
	l0.5,1.7c-0.5,0.4-1.2,0.6-1.9,0.5c-1.2,0.2-2.2-0.6-2.4-1.8C272.1,366,272.1,365.8,272.1,365.7z"/>
<path class="st1" d="M169.9,409.5h-36.8l14.2-24.1h36.8L169.9,409.5z"/>
<path class="st3" d="M175.6,409.5h-28.2l37.5-63.9h28.2L175.6,409.5z"/>
<path class="st1" d="M208.1,369.7H176l14.2-24.1h32.1L208.1,369.7z"/>
<path class="st5" d="M1237.8,380.7h-104.8l46.6-78.7h104.8L1237.8,380.7z"/>
<path class="st5" d="M1237.8,459.4h-104.8l46.6-78.7h104.8L1237.8,459.4z"/>
<line class="st6" x1="1365.4" y1="770.8" x2="1080.1" y2="485.5"/>
<path class="st5" d="M1015.5,322.7L836.3,628.1h259.4l154.8,154.8"/>
<line class="st6" x1="508.9" y1="301.8" x2="622.8" y2="107.8"/>
<line class="st5" x1="524.9" y1="180.6" x2="44.2" y2="180.6"/>
<line class="st5" x1="373.5" y1="459.4" x2="-107.2" y2="459.4"/>
<circle class="st1" cx="34.5" cy="180.6" r="9.7"/>
<circle class="st1" cx="1014.9" cy="322.7" r="9.7"/>
<circle class="st3" cx="510.3" cy="299.5" r="9.7"/>
<circle class="st3" cx="371" cy="459.4" r="9.7"/>
<circle class="st3" cx="1080.1" cy="485.5" r="9.7"/>
<line class="st5" x1="1132.9" y1="380.7" x2="1132.9" y2="459.4"/>
<line class="st5" x1="1237.8" y1="380.7" x2="1237.8" y2="459.4"/>
<line class="st5" x1="1284.4" y1="301.9" x2="1284.4" y2="380.7"/>
<line class="st5" x1="1179.5" y1="380.7" x2="1179.5" y2="301.9"/>
<path class="st5" d="M325.7,0.7h-85.3l37.9-64.1h85.3L325.7,0.7z"/>
<path class="st5" d="M325.7,64.8h-85.3l37.9-64.1h85.3L325.7,64.8z"/>
<line class="st5" x1="240.3" y1="0.7" x2="240.3" y2="64.8"/>
<line class="st5" x1="325.7" y1="0.7" x2="325.7" y2="64.8"/>
<path class="st5" d="M426.2,309.3h-85.3l37.9-64.1h85.3L426.2,309.3z"/>
<path class="st5" d="M426.2,373.3h-85.3l37.9-64.1h85.3L426.2,373.3z"/>
<line class="st5" x1="340.9" y1="309.3" x2="340.9" y2="373.3"/>
<line class="st5" x1="426.2" y1="309.3" x2="426.2" y2="373.3"/>
<line class="st5" x1="464.1" y1="245.2" x2="464.1" y2="309.3"/>
<line class="st5" x1="378.8" y1="309.3" x2="378.8" y2="245.2"/>
<path class="st5" d="M103.6,591.3H1.1l45.6-77h102.6L103.6,591.3z"/>
<path class="st5" d="M103.6,668.3H1.1l45.6-77h102.6L103.6,668.3z"/>
<line class="st5" x1="103.6" y1="591.3" x2="103.6" y2="668.3"/>
<line class="st5" x1="149.2" y1="514.3" x2="149.2" y2="591.3"/>
<line class="st5" x1="46.6" y1="591.3" x2="46.6" y2="514.3"/>
<path class="st6" d="M1365.7,501c-0.1,0-0.2,0-0.3,0c-149,0-269.8,120.8-269.8,269.8h270.1V501z"/>
<polygon class="st1" points="807.6,770.8 848.7,770.8 901.3,678.3 859.9,678.3 "/>
</svg>
